<?xml version="1.0" encoding="iso-8859-1"?>
<!-- Generator: Adobe Illustrator 19.0.0, SVG Export Plug-In . SVG Version: 6.00 Build 0)  -->
<svg version="1.1" id="Layer_1" xmlns="http://www.w3.org/2000/svg" xmlns:xlink="http://www.w3.org/1999/xlink" x="0px" y="0px"
	 viewBox="0 0 512.001 512.001" style="enable-background:new 0 0 512.001 512.001;" xml:space="preserve">
<g>
	<g>
		<path d="M471.148,212.472c-4.513,0-8.17,3.658-8.17,8.17c0,31.536-25.657,57.191-57.191,57.191h-12.299
			c-3.373-9.509-12.455-16.34-23.105-16.34c-5.04,0-9.729,1.531-13.629,4.149c-7.066-12.233-20.278-20.49-35.392-20.49H21.323
			c-4.513,0-8.17,3.658-8.17,8.17c0,4.512,3.657,8.17,8.17,8.17h300.038c10.651,0,19.733,6.831,23.105,16.34H21.323
			c-4.513,0-8.17,3.658-8.17,8.17c0,4.512,3.657,8.17,8.17,8.17h323.143c-3.373,9.51-12.455,16.34-23.105,16.34H21.323
			c-4.513,0-8.17,3.658-8.17,8.17c0,4.512,3.657,8.17,8.17,8.17h300.038c15.114,0,28.327-8.256,35.392-20.49
			c3.9,2.619,8.589,4.149,13.629,4.149c10.651,0,19.733-6.831,23.105-16.34h12.299c40.546,0,73.532-32.986,73.532-73.532
			C479.318,216.13,475.661,212.472,471.148,212.472z M370.382,294.174c-4.506,0-8.17-3.665-8.17-8.17c0-4.506,3.665-8.17,8.17-8.17
			s8.17,3.665,8.17,8.17C378.552,290.509,374.888,294.174,370.382,294.174z"/>
	</g>
</g>
<g>
	<g>
		<circle cx="204.255" cy="125.321" r="8.17"/>
	</g>
</g>
<g>
	<g>
		<circle cx="171.574" cy="158.002" r="8.17"/>
	</g>
</g>
<g>
	<g>
		<path d="M503.829,21.834h-24.511v-2.723c0-4.512-3.657-8.17-8.17-8.17s-8.17,3.658-8.17,8.17v2.723H8.17
			c-4.513,0-8.17,3.658-8.17,8.17v38.128c0,4.512,3.657,8.17,8.17,8.17h364.935v115.681l-117.106,20.366l-117.106-20.366v-91.171
			c0-4.512-3.657-8.17-8.17-8.17c-4.513,0-8.17,3.658-8.17,8.17v98.042c0,3.972,2.856,7.368,6.77,8.049L254.6,228.691
			c0.463,0.081,0.931,0.121,1.4,0.121s0.937-0.04,1.4-0.121l125.276-21.787c3.914-0.681,6.77-4.078,6.77-8.049V76.302h73.532
			v111.659c0,4.512,3.657,8.17,8.17,8.17s8.17-3.658,8.17-8.17V76.302h24.511c4.513,0,8.17-3.658,8.17-8.17V30.004
			C511.999,25.492,508.342,21.834,503.829,21.834z M462.978,59.962H16.34V38.174h446.637V59.962z M495.659,59.962h-16.34V38.174
			h16.34V59.962z"/>
	</g>
</g>
<g>
	<g>
		<path d="M471.172,354.089H138.805c-0.306,0-0.606,0.02-0.903,0.052c-0.074,0.009-0.147,0.024-0.221,0.034
			c-0.227,0.032-0.451,0.069-0.671,0.118c-0.083,0.019-0.163,0.042-0.245,0.063c-0.211,0.054-0.419,0.115-0.624,0.186
			c-0.083,0.028-0.163,0.059-0.245,0.089c-0.205,0.078-0.404,0.164-0.6,0.257c-0.048,0.023-0.098,0.038-0.145,0.062L4.518,420.268
			c-2.767,1.383-4.516,4.213-4.516,7.307c0,3.095,1.748,5.924,4.516,7.307l130.633,65.316c0.047,0.024,0.097,0.039,0.145,0.062
			c0.196,0.094,0.395,0.18,0.6,0.257c0.082,0.032,0.163,0.061,0.245,0.089c0.205,0.071,0.413,0.132,0.624,0.186
			c0.082,0.021,0.162,0.045,0.245,0.063c0.22,0.049,0.444,0.086,0.671,0.118c0.074,0.01,0.147,0.025,0.221,0.034
			c0.296,0.033,0.597,0.052,0.903,0.052h332.368c22.513,0,40.828-18.315,40.828-40.828v-65.316
			C512,372.404,493.685,354.089,471.172,354.089z M65.319,447.013l-38.877-19.439l38.877-19.438V447.013z M130.635,479.671
			l-48.975-24.488v-55.217l48.975-24.488V479.671z M419.472,484.72H146.975V370.429h228.954v48.975H171.462
			c-4.513,0-8.17,3.658-8.17,8.17c0,4.512,3.657,8.17,8.17,8.17h204.466v24.488c0,4.512,3.657,8.17,8.17,8.17s8.17-3.658,8.17-8.17
			v-89.805h27.203V484.72z M495.66,460.234c0,13.503-10.985,24.488-24.488,24.488h-35.36V370.429h35.359
			c13.503,0,24.488,10.985,24.488,24.488V460.234z"/>
	</g>
</g>
<g>
</g>
<g>
</g>
<g>
</g>
<g>
</g>
<g>
</g>
<g>
</g>
<g>
</g>
<g>
</g>
<g>
</g>
<g>
</g>
<g>
</g>
<g>
</g>
<g>
</g>
<g>
</g>
<g>
</g>
</svg>
