<?xml version="1.0" encoding="iso-8859-1"?>
<!-- Generator: Adobe Illustrator 16.0.0, SVG Export Plug-In . SVG Version: 6.00 Build 0)  -->
<!DOCTYPE svg PUBLIC "-//W3C//DTD SVG 1.1//EN" "http://www.w3.org/Graphics/SVG/1.1/DTD/svg11.dtd">
<svg version="1.1" id="Capa_1" xmlns="http://www.w3.org/2000/svg" xmlns:xlink="http://www.w3.org/1999/xlink" x="0px" y="0px"
	 width="193.175px" height="193.175px" viewBox="0 0 193.175 193.175" style="enable-background:new 0 0 193.175 193.175;"
	 xml:space="preserve">
<g>
	<g>
		<path d="M133.509,16.174c0.923-0.758,1.694-1.583,2.234-2.49c0.719-1.208-0.181-3.224-1.748-3.045
			c-0.276,0.031-0.55,0.102-0.824,0.16c-3.107-2.367-7.685-2.96-11.361-3.988c-6.043-1.69-12.026-3.676-17.591-6.613
			c-0.922-0.487-1.875-0.013-2.297,0.726c-0.142,0.033-0.286,0.07-0.438,0.133C88.691,6.383,77.251,12.886,62.959,12.451
			c-1.289-0.039-1.699,1.357-1.143,2.228c0.029,0.35,0.194,0.673,0.556,0.826c6.584,2.783,13.482,5.966,20.566,8.35
			c0.352,13.78,3.221,31.476,20.945,29.879c7.918-0.713,13.898-7.784,17.283-14.357c2.362-4.586,4.579-12.684,1.947-17.895
			c2.49-0.984,5.409-2.143,7.895-3.597c3.021,6.485,2.186,14.688,2.062,21.601c-0.019,1.003,0.68,1.766,1.582,2.078
			c0.396,0.137,0.747,0.129,1.146,0c0.931-0.302,1.565-1.084,1.582-2.078C137.51,32.275,138.193,22.37,133.509,16.174z
			 M100.931,46.209c-1.264-0.037-2.368-0.411-3.333-1.052C98.722,45.479,99.845,45.812,100.931,46.209z"/>
		<path d="M161.572,110.644c-0.02-0.148-0.057-0.283-0.095-0.417c-0.03-0.274-0.094-0.555-0.225-0.84
			c-5.711-12.395-15.919-22.909-24.424-33.425c-7.147-8.838-15.151-13.371-26.505-13.83c-7.158-0.289-14.538-0.276-21.698-0.1
			c-5.462,0.135-11.189,1.627-14.32,6.496c-4.497,6.992-6.741,15.367-10.683,22.717c-4.127,7.695-8.542,15.079-11.926,23.139
			c-3.127,1.561-5.434,4.403-6.461,7.786c-3.513,0.384-6.981,1-10.331,1.979c-0.518,0.15-0.873,0.497-1.083,0.918
			c-2.312,1.72-2.702,6.896-2.176,9.189c0.707,3.078,1.375,6.151,3.329,8.081c-3.238,10.48-4.184,22.711,8.891,25.558
			c6.302,1.372,13.162,0.673,19.522,0.211c4.22-0.308,10.747,0.277,14.758-1.557c-0.194,1.138-0.388,2.278-0.579,3.429
			c-0.903,5.469-2.942,14.012,0.172,19.145c2.03,3.348,7.239,5.3,10.831,3.15c4.43-2.652,5.825-8.104,6.745-12.85
			c1.214-6.249,1.33-12.725,1.31-19.068c-0.031-9.312,0.648-18.374,2.292-27.511c1.2-0.534,2.4-1.068,3.601-1.604
			c0.545,1.02,0.93,2.096,1.151,3.228c0.48,1.835,0.541,3.796,0.653,5.681c0.176,2.963,0.066,5.939,0.12,8.905
			c0.065,3.549,0.081,7.099,0.121,10.651c0.105,9.217,0.123,19.604,3.95,28.166c3.044,6.808,10.727,4.879,13.729-0.896
			c5.171-9.942,1.66-25.626,0.76-36.183c-0.84-9.842-1.17-19.764-1.762-29.631c-0.366-6.092-0.534-12.208-0.106-18.301
			c0.129-1.829,0.353-3.753,0.857-5.565c0.562-0.41,0.989-1.059,1.089-1.96c0.046-0.422,0.066-0.845,0.103-1.267
			c0.127,0.091,0.409,0.431,1.218,0.982c5.01,3.411,32.179,31.726,37.065,19.211C161.899,113.161,161.714,111.771,161.572,110.644z
			 M37.315,155.85c-0.028-0.353-0.049-0.71-0.058-1.075c0.349,0.509,0.743,0.983,1.173,1.43
			C38.029,156.086,37.662,155.967,37.315,155.85z M44.857,144.626c1.817,0.021,3.652-0.033,5.488-0.131
			c-0.019,0.139-0.024,0.286-0.013,0.441c0.152,2.008,0.416,3.985-0.197,5.941c-0.159,0.506-0.348,0.706-0.674,1.001
			c0.095-0.086-0.206-0.032-0.225-0.036C46.663,151.334,45.534,147.369,44.857,144.626z M50.862,161.713
			c-0.688,0.002-1.365-0.016-2.029-0.06c0.757-0.118,1.495-0.28,2.205-0.494C50.959,161.339,50.897,161.523,50.862,161.713z
			 M50.455,121.77c1.331-1.914,3.253-3.293,6.011-3.589c1.567-0.168,3.226,0.109,4.619,0.779c-0.173,1.106,1.099,1.905,1.933,1.4
			c0.347,0.376,0.612,0.812,0.832,1.277c-0.581,0.014-1.145,0.021-1.668,0.011C58.333,121.576,54.388,121.57,50.455,121.77z
			 M66.292,150.679c-0.02,0.062-0.029,0.096-0.039,0.13c-0.013,0.026-0.024,0.046-0.044,0.09c-0.079,0.168-0.176,0.326-0.272,0.483
			c-0.017,0.028-0.021,0.038-0.033,0.059c-0.012,0.012-0.016,0.016-0.029,0.031c-0.056,0.064-0.121,0.118-0.183,0.177
			c-0.051,0.039-0.121,0.091-0.176,0.125c-0.051,0.017-0.081,0.028-0.106,0.04c-0.043-0.011-0.109-0.021-0.238-0.028
			c0.721,0.045-0.245-0.223-0.131-0.109c-0.078-0.045-0.158-0.087-0.233-0.136l0,0c-0.019-0.018-0.035-0.034-0.068-0.064
			c-0.539-0.482-0.637-0.735-1.063-1.613c-0.778-1.6-0.846-4.093-0.709-6.152c1.119-0.015,2.304-0.011,3.512-0.005
			c-0.247,1.374,0.179,2.864,0.199,4.266C66.691,149.054,66.621,149.651,66.292,150.679z M82.087,122.681
			c-3.409-1.497-8.354-1.46-12.923-1.263c-0.532-2.222-1.789-4.085-3.515-5.479c3.762-6.392,10.968-16.968,14.156-12.127
			C82.925,108.544,82.331,116.732,82.087,122.681z"/>
	</g>
</g>
<g>
</g>
<g>
</g>
<g>
</g>
<g>
</g>
<g>
</g>
<g>
</g>
<g>
</g>
<g>
</g>
<g>
</g>
<g>
</g>
<g>
</g>
<g>
</g>
<g>
</g>
<g>
</g>
<g>
</g>
</svg>
