<?xml version="1.0" encoding="iso-8859-1"?>
<!-- Generator: Adobe Illustrator 16.0.0, SVG Export Plug-In . SVG Version: 6.00 Build 0)  -->
<!DOCTYPE svg PUBLIC "-//W3C//DTD SVG 1.1//EN" "http://www.w3.org/Graphics/SVG/1.1/DTD/svg11.dtd">
<svg version="1.1" id="Capa_1" xmlns="http://www.w3.org/2000/svg" xmlns:xlink="http://www.w3.org/1999/xlink" x="0px" y="0px"
	 width="42.928px" height="42.929px" viewBox="0 0 42.928 42.929" style="enable-background:new 0 0 42.928 42.929;"
	 xml:space="preserve">
<g>
	<path d="M27.954,12.204h-1.049c1.174-1.297,1.893-3.01,1.893-4.896C28.797,3.272,25.528,0,21.49,0c-4.035,0-7.31,3.272-7.31,7.308
		c0,1.886,0.724,3.599,1.896,4.896h-1.098c-1.736,0-3.146,1.406-3.146,3.143v8.898c0,1.661,1.295,3.007,2.926,3.12v11.793
		c0,2.082,1.688,3.771,3.771,3.771c1.187,0,2.242-0.547,2.935-1.399c0.69,0.854,1.748,1.399,2.933,1.399
		c2.086,0,3.771-1.688,3.771-3.771V27.365c1.635-0.112,2.928-1.459,2.928-3.121v-8.897C31.096,13.611,29.69,12.204,27.954,12.204z
		 M23.86,21.667l-2.061,2.06c-0.088,0.09-0.207,0.139-0.334,0.139c-0.123,0-0.244-0.049-0.334-0.139l-2.059-2.06
		c-0.115-0.116-0.164-0.285-0.125-0.445l1.281-5.221L19.127,14.9c-0.136-0.136-0.177-0.339-0.104-0.515
		c0.074-0.176,0.246-0.291,0.438-0.291h4.006c0.189,0,0.363,0.115,0.438,0.291c0.072,0.176,0.031,0.379-0.104,0.515l-1.099,1.101
		l1.281,5.221C24.024,21.382,23.975,21.551,23.86,21.667z"/>
</g>
<g>
</g>
<g>
</g>
<g>
</g>
<g>
</g>
<g>
</g>
<g>
</g>
<g>
</g>
<g>
</g>
<g>
</g>
<g>
</g>
<g>
</g>
<g>
</g>
<g>
</g>
<g>
</g>
<g>
</g>
</svg>
