<?xml version="1.0" encoding="iso-8859-1"?>
<!-- Generator: Adobe Illustrator 19.0.0, SVG Export Plug-In . SVG Version: 6.00 Build 0)  -->
<svg version="1.1" id="Layer_1" xmlns="http://www.w3.org/2000/svg" xmlns:xlink="http://www.w3.org/1999/xlink" x="0px" y="0px"
	 viewBox="0 0 512 512" style="enable-background:new 0 0 512 512;" xml:space="preserve">
<g>
	<g>
		<path d="M456.348,0h-66.783H278.261H55.652c-9.22,0-16.696,7.475-16.696,16.696v478.609c0,9.22,7.475,16.696,16.696,16.696
			h400.696c9.22,0,16.696-7.475,16.696-16.696V16.696C473.043,7.475,465.568,0,456.348,0z M294.957,33.391h77.913v104.146
			l-26.131-31.357c-3.171-3.805-7.87-6.007-12.826-6.007s-9.655,2.202-12.826,6.007l-26.131,31.357V33.391z M105.739,478.609H72.348
			V33.391h33.391V478.609z M439.653,478.609h-0.001H139.13V33.391h122.435v150.261c0,7.029,4.402,13.305,11.012,15.698
			c6.613,2.394,14.01,0.388,18.51-5.011l42.825-51.39l42.827,51.391c3.234,3.882,7.968,6.008,12.829,6.008
			c1.901,0,3.823-0.326,5.681-0.997c6.609-2.393,11.012-8.669,11.012-15.698V33.391h33.391V478.609z"/>
	</g>
</g>
<g>
	<g>
		<path d="M356.174,311.652H222.609c-9.22,0-16.696,7.475-16.696,16.696s7.475,16.696,16.696,16.696h133.565
			c9.22,0,16.696-7.475,16.696-16.696S365.394,311.652,356.174,311.652z"/>
	</g>
</g>
<g>
	<g>
		<path d="M389.565,378.435H189.217c-9.22,0-16.696,7.475-16.696,16.696s7.475,16.696,16.696,16.696h200.348
			c9.22,0,16.696-7.475,16.696-16.696S398.786,378.435,389.565,378.435z"/>
	</g>
</g>
<g>
</g>
<g>
</g>
<g>
</g>
<g>
</g>
<g>
</g>
<g>
</g>
<g>
</g>
<g>
</g>
<g>
</g>
<g>
</g>
<g>
</g>
<g>
</g>
<g>
</g>
<g>
</g>
<g>
</g>
</svg>
