<?xml version="1.0" encoding="iso-8859-1"?>
<!-- Generator: Adobe Illustrator 17.1.0, SVG Export Plug-In . SVG Version: 6.00 Build 0)  -->
<!DOCTYPE svg PUBLIC "-//W3C//DTD SVG 1.1//EN" "http://www.w3.org/Graphics/SVG/1.1/DTD/svg11.dtd">
<svg version="1.1" id="Capa_1" xmlns="http://www.w3.org/2000/svg" xmlns:xlink="http://www.w3.org/1999/xlink" x="0px" y="0px"
	 viewBox="0 0 428.342 428.342" style="enable-background:new 0 0 428.342 428.342;" xml:space="preserve">
<path id="XMLID_421_" d="M145.377,33.287c4.971,0,9-4.029,9-9c0-3.349,2.225-6.287,4.76-6.287c2.534,0,4.756,2.938,4.756,6.287
	v45.861c0,30.25,22.554,54.861,50.276,54.861c27.721,0,50.274-24.61,50.274-54.861V24.287c0-3.349,2.225-6.287,4.76-6.287
	c2.535,0,4.758,2.938,4.758,6.287c0,4.971,4.029,9,9,9s9-4.029,9-9C291.963,10.895,281.754,0,269.205,0
	c-11.481,0-21.004,9.119-22.543,20.925h-32.357c-0.09-0.001-0.18-0.001-0.27,0h-32.359C180.139,9.119,170.617,0,159.138,0
	c-12.55,0-22.76,10.895-22.76,24.287C136.377,29.257,140.407,33.287,145.377,33.287z M223.17,38.925h23.274v31.222
	c0,16.76-9.843,30.942-23.274,35.403V38.925z M181.894,38.925h23.276v66.625c-13.432-4.46-23.276-18.643-23.276-35.403V38.925z
	 M267.068,188.036c0,4.971-4.029,9-9,9s-9-4.029-9-9V167.77c0-4.971,4.029-9,9-9s9,4.029,9,9V188.036z M395.368,410.342h-21.974
	V301.703c0-4.971-4.029-9-9-9h-8.275V159.798c0-4.971-4.029-9-9-9h-29.61V85.904c0-4.971-4.029-9-9-9h-17.308c-4.971,0-9,4.029-9,9
	s4.029,9,9,9h8.308v197.798H128.833V94.904h8.31c4.971,0,9-4.029,9-9s-4.029-9-9-9h-17.31c-4.971,0-9,4.029-9,9v64.894h-29.61
	c-4.971,0-9,4.029-9,9v132.905h-8.276c-4.971,0-9,4.029-9,9v108.639H32.974c-4.971,0-9,4.029-9,9s4.029,9,9,9h362.394
	c4.971,0,9-4.029,9-9S400.338,410.342,395.368,410.342z M317.508,168.798h20.61v123.905h-20.61V168.798z M90.223,168.798h20.61
	v123.905h-20.61V168.798z M177.549,410.342H131.2v-34.789c0-12.778,10.397-23.173,23.176-23.173
	c12.778,0,23.173,10.396,23.173,23.173V410.342z M297.139,410.342h-46.348v-34.789c0-12.778,10.396-23.173,23.175-23.173
	c12.777,0,23.173,10.396,23.173,23.173V410.342z M355.394,410.342h-40.255v-34.789c0-22.703-18.471-41.173-41.174-41.173
	c-22.703,0-41.174,18.47-41.174,41.173v34.789h-37.241v-34.789c0-22.703-18.471-41.173-41.175-41.173
	c-22.704,0-41.174,18.47-41.174,41.173v34.789H72.947v-99.639h282.447V410.342z M179.273,232.378v20.268c0,4.971-4.029,9-9,9
	s-9-4.029-9-9v-20.268c0-4.971,4.029-9,9-9S179.273,227.408,179.273,232.378z M267.068,232.378v20.268c0,4.971-4.029,9-9,9
	s-9-4.029-9-9v-20.268c0-4.971,4.029-9,9-9S267.068,227.408,267.068,232.378z M223.17,232.378v20.268c0,4.971-4.029,9-9,9
	s-9-4.029-9-9v-20.268c0-4.971,4.029-9,9-9S223.17,227.408,223.17,232.378z M179.273,188.036c0,4.971-4.029,9-9,9s-9-4.029-9-9
	V167.77c0-4.971,4.029-9,9-9s9,4.029,9,9V188.036z M223.17,188.036c0,4.971-4.029,9-9,9s-9-4.029-9-9V167.77c0-4.971,4.029-9,9-9
	s9,4.029,9,9V188.036z"/>
<g>
</g>
<g>
</g>
<g>
</g>
<g>
</g>
<g>
</g>
<g>
</g>
<g>
</g>
<g>
</g>
<g>
</g>
<g>
</g>
<g>
</g>
<g>
</g>
<g>
</g>
<g>
</g>
<g>
</g>
</svg>
